<svg xmlns="http://www.w3.org/2000/svg" id="svg" viewBox="0 0 400 201.8"><defs><style>.cls-1{fill:#008aff;fill-rule:evenodd}</style></defs><g id="svgg"><path id="path0" d="M157 67.2c0 25 0 25.8.3 26.4a5.4 5.4 0 0 0 2.5 2.2l2.3 1.4a12.6 12.6 0 0 0 1.2.6l1.3.8a9.3 9.3 0 0 0 1.4.7.2.2 0 0 1 .2.2.2.2 0 0 0 .1.2 8.2 8.2 0 0 1 1.4.7 12.4 12.4 0 0 0 1.4.8 11 11 0 0 1 1.1.6 6.1 6.1 0 0 0 1.2.7.3.3 0 0 1 .3.1 7.5 7.5 0 0 0 2.2 1c.2 0 .3-1.6.3-16.5 0-13.2 0-16.5.2-16.3a9.8 9.8 0 0 0 1.1.6l2 1.2 3.7 2 1.2.7 1 .5 2.2 1.2a10.3 10.3 0 0 0 1.4.8.1.1 0 0 1 .2 0c0 .2.2.3.4.4a13.8 13.8 0 0 1 1.4.8 33 33 0 0 0 3 1.6 66.8 66.8 0 0 0 4.3 2.5 8.2 8.2 0 0 0 1 .6 43 43 0 0 1 2.6 1.4l1.1.7 1.7.9a4.3 4.3 0 0 0 1 .4c.1 0 .2-2.8.2-9.2 0-10.1 0-10-1-10.8a11.2 11.2 0 0 0-2.3-1.4l-2-1a19.5 19.5 0 0 0-2.1-1.3l-1.6-.8-5.5-3.1-1.7-1-1.3-.7-1.2-.7-2.9-1.6-2.6-1.5-1.8-1-2-1.1-2.5-1.5-1.8-1a2 2 0 0 1-.6-.3 13.3 13.3 0 0 0-1.2-.7l-1.5-.8-6.9-4-2.2-1.2a12.2 12.2 0 0 0-1.8-1h-.4v25.8m94-25a158.8 158.8 0 0 0-5.4 3.1 10.6 10.6 0 0 1-1.2.7 8.7 8.7 0 0 0-1.1.6 85.6 85.6 0 0 1-3.5 2A27.7 27.7 0 0 1 237 50c-.2 0-.3.2-.3.2a.1.1 0 0 1-.1.2 15 15 0 0 0-1.8 1l-1.7.8a5 5 0 0 0-.7.4l-3.1 1.8-5.4 3.1a9 9 0 0 1-1 .6 11.2 11.2 0 0 0-1.2.6 12.8 12.8 0 0 1-1.2.7 10 10 0 0 0-1 .5l-1.6 1-1.3.7-1.5.8a28 28 0 0 0-3.1 1.8l-4.4 2.5c-1.5 1-1.5.9-1.5 11.3 0 9.3 0 9.5.6 9a9.6 9.6 0 0 1 1-.7l3.6-2 1-.6 1.2-.7 3.7-2a97.4 97.4 0 0 1 4.5-2.5l1.7-1 1.1-.6.8-.5 1.5-.8 1.7-1a2.3 2.3 0 0 0 .4-.2 2.7 2.7 0 0 1 .5-.3l1.3-.7 3-1.6 2-1.2v16.5c0 13.8 0 16.5.3 16.6a5.6 5.6 0 0 0 1.8-.9l1.6-.9a14.8 14.8 0 0 0 1.3-.7l3.3-2 3-1.7 1.6-1c2.8-1.6 3.8-2.3 4-3 .5-1.2.5-52.2 0-52.1a14 14 0 0 0-1.4.7m89.5 78.3c-3.9.4-11.5 3-12 4a.3.3 0 0 1-.2.1 21.1 21.1 0 0 0-2.9 2l-.7.5a24.9 24.9 0 0 0-3.1 2.9 18.7 18.7 0 0 0-3.4 4 .2.2 0 0 1 0 .2 30.5 30.5 0 0 0-5.5 12.4c-.3 1-.3 9.1 0 9.4s.2-.5.3-2.1a27.8 27.8 0 0 1 .2-3l.5-2a26.4 26.4 0 0 1 .9-3.5l.6-1.7a27.6 27.6 0 0 1 34.9-16.4 18 18 0 0 1 11 13.7l.3 1.1a39.5 39.5 0 0 1 0 5.3l-.3 1.3a33 33 0 0 1-2 6.9 8.4 8.4 0 0 0-.4 1 39.7 39.7 0 0 1-2.7 4.5 29.3 29.3 0 0 1-23.6 12.1c-1.8 0-2.2.1-1.4.4a40.6 40.6 0 0 0 8.2 0 29.4 29.4 0 0 0 15.5-6.9 32.4 32.4 0 0 0 8-10.2l.9-1.9a4.6 4.6 0 0 0 .2-.8 2.6 2.6 0 0 1 .3-.8 21.8 21.8 0 0 0 .9-3.5 29 29 0 0 0-1-15.3 26.4 26.4 0 0 0-2.9-5.3l-1-1.2a22.2 22.2 0 0 0-4.4-3.8 24.1 24.1 0 0 0-15.2-3.3m-130.9 1.8a24.5 24.5 0 0 0-4.1 1 19.1 19.1 0 0 0-7.4 4.5 19.9 19.9 0 0 0-2 2.5c-2.7 3.7-4 9.5-3.2 13.1.9 4 4 6.4 10.2 8.3l5.1 1.5c3.4 1.3 4 3.5 1.9 6-3.3 3.5-9.4 2-9-2.4l.2-1h-13.3l-.2 1.2c-.7 3.5-.2 7.5 1.3 10a13.3 13.3 0 0 0 2.9 3.2.8.8 0 0 1 .3.2 17 17 0 0 0 6 2.3 41.5 41.5 0 0 0 9.4-.1 27.8 27.8 0 0 0 9.2-3.8 20.1 20.1 0 0 0 7.5-11.4 16.3 16.3 0 0 0 .6-4.3c0-5-2.5-8-8.4-10.4a49.7 49.7 0 0 0-5.5-1.7.8.8 0 0 1-.4-.1 4.1 4.1 0 0 0-.9-.4c-4.5-1.4-5.1-4.5-1.3-6.4 3-1.6 6.3 0 6.2 2.8v1h6.3c7 .2 6.4.3 6.7-1 1.3-8.4-2-13.1-10.3-14.8a40.6 40.6 0 0 0-8 .1m-156.4.7-.3 1-1.5 4-2.6 6.8-1.4 3.9a655.7 655.7 0 0 1-5.8 15.5 3 3 0 0 0-.2.8.6.6 0 0 1-.2.4 3.9 3.9 0 0 0-.4.9l-1 2.6c0 .1-.6 1.4-1 2.9s-1 2.7-1.2 2.9l-2.3 6.4c0 .2 2 .2 6.5.2h6.4l.4-1.2 1.5-4.2 1.5-4.4a3 3 0 0 1 .3-.6 31.4 31.4 0 0 0 1-2.6l.5-1.5A62.5 62.5 0 0 1 55 152l.4-1.2a192.2 192.2 0 0 0 2.1-6.1c.3-1 .5-.8.7.6l.3 1.7.5 2 .4 2.1.3 1.7.3 1.7.4 2 1 4.8.2 1.2 1.7 8.5c0 .4.1.4 2 .3h2l1.4-2a93 93 0 0 1 3-4.6A1658.8 1658.8 0 0 1 85 144.9a3.7 3.7 0 0 0 .3-.5c.3-.3.2.7 0 3.5a780.3 780.3 0 0 0-1.4 12.8l-.5 4-.4 3.9-.1 2.1v.8h6.3c3.5 0 6.4 0 6.4-.2l.4-3.2.4-4.6.4-4.5.3-3.3.2-2.3.2-2.8.3-2.4a15.8 15.8 0 0 1 .1-1.7 16.5 16.5 0 0 0 .2-2 52 52 0 0 1 .5-5.6 84.7 84.7 0 0 0 1-11.8l.4-2.8v-1.5H87.4l-1 1.5-1.9 3-1 1.6a278.7 278.7 0 0 1-4.6 7.1 74 74 0 0 1-3.4 5.2.3.3 0 0 0-.1.3c0 .1 0 .2-.2.2a.2.2 0 0 0-.1.2 70.8 70.8 0 0 1-4.4 6.7 2.4 2.4 0 0 1-.2-1l-.2-1.2a127.7 127.7 0 0 1-1.6-9.1 168.4 168.4 0 0 1-1.6-9l-.4-2.4-.3-2-.2-1.3H53.4l-.2.6m75 0c-.3.3-2.5 4.1-2.5 4.2a.2.2 0 0 1-.2.2.2.2 0 0 0-.2.2l-1.8 3.1-1.9 3.2a.2.2 0 0 1-.1.1.2.2 0 0 0-.2.2 21.5 21.5 0 0 1-1.3 2.4l-1.4 2.2a5.8 5.8 0 0 1-.5.8 4.8 4.8 0 0 0-.5.8l-1.5 2.7a26.7 26.7 0 0 0-1.6 2.7l-.1.2c-.1 0-.3.2-.4.5l-1.7 2.8-1.6 2.8a2 2 0 0 1-.4.5.2.2 0 0 0-.1.2l-2 3.3-6.6 11-1.3 2.3a12.3 12.3 0 0 0-1 1.8c0 .2-.1.2 8.5.2h5l.6-1.1a403.4 403.4 0 0 1 3-5.6 3.4 3.4 0 0 1 .4-.6l.4-.6h4.7l7.9.2h3.2l.1.6.6 6v1.2h13.7c.4.1.4-.2.1-1.8a952.3 952.3 0 0 1-3.4-23.5 472.9 472.9 0 0 0-2.7-19.1l-.4-2.6-.2-1.6-1.7-.1c-3.3-.2-10.7-.2-10.8 0m22.8.3a429 429 0 0 1 3 9.7c.4 1.5 1 3.1 1 3.6s.4 1.2.6 1.6l.4 1.4.3 1.2c0 .4.3 1 .4 1.3a42 42 0 0 1 1 3.6l.6 1.8 1 3.1a11.7 11.7 0 0 1 .6 2.3 12.7 12.7 0 0 0-.4 1.3l-.4 2-.2 1-.5 1.8a1120 1120 0 0 0-2.6 11.5c-.4 1.4-1 1.3 6.2 1.3h6.5l.3-1.2.6-2.6.2-.9.4-1.7.8-3.3 1-4.7 1-3.6a11 11 0 0 1 2.2-3.6l2-2.6 2.3-3 .8-1 2.5-3.3 5.3-7a104 104 0 0 1 5.2-6.6 1.8 1.8 0 0 0 .4-.5.8.8 0 0 1 .2-.4 19.8 19.8 0 0 0 1.9-2.5s-3.2 0-7-.1h-7l-.4.5a4.3 4.3 0 0 1-.5.7 6.7 6.7 0 0 0-.7 1 9.2 9.2 0 0 1-.5.8 279.6 279.6 0 0 0-7.6 10.6 39.4 39.4 0 0 1-2.6 3.6l-1-4a10 10 0 0 1-.2-1 318.7 318.7 0 0 0-2.9-11.8v-.5H158c-6.4 0-7 0-7 .3m83.6.3-.4 1.5-1.6 6.8a48.2 48.2 0 0 0-.7 3.6 46 46 0 0 0 6.1.2h6.1v.3l-.5 2-.4 1.7a120.4 120.4 0 0 1-1.2 5.4l-.4 1.4-.4 1.8-1.3 5.9-.5 2-.7 2.7-.6 2.4a11.2 11.2 0 0 1-.3 1.3 8.6 8.6 0 0 0-.3 1.2l-.2 1.2-.4 1.4-.7 2.9-.5 2.4c0 .1.2.4 6.4.4h6.4l.2-1 .4-2 .6-2.2.4-1.7.3-1.4.3-1.5 1.4-5.7 1.3-5.8.6-2.4.7-3.4.7-2.9.7-2.8.7-3.3c.1-.3.5-.3 6.2-.3h6.2l.1-.6a83.3 83.3 0 0 0 1-4.6c.3-.6 1.5-6.1 1.7-6.8 0-.3-.4-.3-7.2-.3l-18.7-.1c-11.2-.2-11.5-.1-11.6.2m42.8 0-.8 3a335.6 335.6 0 0 1-3.3 14.6l-1.1 5-.9 3.6-.8 3.4-.6 2.8-1.2 5.4-.5 2.2a326 326 0 0 1-1.4 5.8 11.7 11.7 0 0 0-.5 2.7l6.4.1h6.3l.4-1.6.5-2.2.5-2.2.6-2.5.4-2.1.5-2 .4-1.6v-.6h4.4l.1.5.2.8a95.9 95.9 0 0 1 2.2 8.2l.8 2.8a19.1 19.1 0 0 0 .8 2.5c.2.3 14.9.3 17.5 0l3.3-.3a193 193 0 0 0 13.3-2.3 52 52 0 0 0 5.8-1.8 54 54 0 0 0 3.5-1.7 6.7 6.7 0 0 1 1-.6l2-1.1 1.8-1a85 85 0 0 0 4.1-2.7l1.8-1.3c3-2.1 7.5-6 7.5-6.3s-.3-.2-1 .5l-1.1 1a48 48 0 0 1-35.6 11l-1.9-.4a37 37 0 0 1-9.1-3.5 4.2 4.2 0 0 0-1-.4c-.4 0-1-.9-1.5-2.4l-1.1-4.1a6 6 0 0 1 1-.9 23.4 23.4 0 0 0 6-5.5c4.5-6.4 5-15.8 1-20.3l-.6-.7c-2-2.2-5.5-3.6-9.7-3.8-4.5-.2-20.3-.2-20.3 0m18.1 12.7c3.6 2.3 1.3 8.5-3.6 9.5-1.6.3-7 .2-6.9-.2a9.6 9.6 0 0 0 .3-1 475.6 475.6 0 0 1 1.7-7.2l.3-1.7 3.8.1c3.7 0 3.8 0 4.4.5m-164 9 .5 4.3.2 2.4.1 1H123l.8-1.5 1.2-2.2 2.3-4 1.6-3 1.7-3 .4-.8.2 2 .5 4.8m-21.3 35.8a70.4 70.4 0 0 1-1.3 4l-.8 2.5-.8 2.7-.7 2c-.4 1.2-.5 1.2 2.3 1.2a11.8 11.8 0 0 0 4.7-.6c5.4-1.7 8.4-7.9 5.4-11-1.2-1.3-2-1.5-5.8-1.6l-2.7-.1-.3 1m25.9-.7a12 12 0 0 0-.5 1.5l-.8 2.7-1.3 4.1-1 3.2a6.4 6.4 0 0 0-.3 1v.5h9.4v-.9h-4.2c-4 0-4.3 0-4.2-.3l1-3.1.6-2h7.9v-.9h-7.5v-.4l.5-1.6.7-2.2.3-1h4.3c4.5 0 4.9 0 4.4-.8-.2-.4-9.2-.2-9.4.1m25 .7a113 113 0 0 1-1.8 5.4 100 100 0 0 0-2 6.8c0 .4 8.6.2 8.8-.2.4-.6.1-.6-3.8-.6h-3.8l.1-.6a8.8 8.8 0 0 1 .3-1 47 47 0 0 0 1.4-4.4l.7-2.2.7-2.3c.5-1.3.5-1.8 0-1.8s-.4.1-.7 1m29-.8-1.3 3.8-2.2 7.3c-.6 1.8-.6 2.1 0 2 .3 0 .3-.2 1.5-4.1l.8-2.4 1-3 .8-2.7c.2-.9-.2-1.6-.6-1m19 0a9.1 9.1 0 0 0 .2 2.9 131.8 131.8 0 0 1 1.1 7.6c.4 3.2.7 3.4 2.1 1.4l.5-.7 3.3-4.3a141 141 0 0 1 3.5-4.5 11 11 0 0 0 1.6-2.4c-.3-.4-.8 0-1.9 1.4l-1.6 2-1.8 2.5-1.9 2.4a7.7 7.7 0 0 0-.6.9 1.5 1.5 0 0 1-.3.3l-1 1.3c-.5.7-.8 1-.8.8l-.2-1.2-.4-3-.4-3.2-.4-2.8c-.2-1.5-.6-2-1-1.4m26.2 0-1.8 5.6-1.4 4.6-.7 2.5v.4h9.5v-.9h-8.5l.2-.5.8-2.6.7-2.2h7.8v-.9h-3.7a28.7 28.7 0 0 1-3.8 0l.4-1.5.8-2.4.4-1.2h4.3a36.4 36.4 0 0 0 4.3-.2 3.8 3.8 0 0 1 0-.5l.2-.3H240a37.7 37.7 0 0 0-4.8.1m24.1.2a13.5 13.5 0 0 0-.4 1.4 54.6 54.6 0 0 1-1.4 4.6 57.2 57.2 0 0 1-1.9 6c-.3.6-.2 1 .2 1s.5-.2 1.6-3.7l.6-2h4.4l.3.7 2 4.4c.3.4.4.6.8.6.6 0 .6-.1-.2-1.8l-1.2-2.6c-.6-1.3-.6-1.4.3-1.5 3.5-.6 5.8-5 3.4-6.6-1.3-1-8-1.3-8.5-.5m24.2-.1a2.8 2.8 0 0 0 .2.8 108.4 108.4 0 0 1 2.8 7.1 45.2 45.2 0 0 0-1.4 4.4c-.2.5 0 .8.4.8s.4-.2 1.1-2.7l.7-2.3c.2-.5 1.4-1.7 5.6-5.7 2.4-2.3 2.7-2.7 2-2.7-.3 0-1.3 1-3.8 3.4l-3.7 3.5s-.6-.8-.6-1a2.9 2.9 0 0 0-.2-.8 36 36 0 0 1-1-2.5 18.8 18.8 0 0 0-1-2c-.2-.6-1-.8-1-.3M117 181.5c3.8 1.8 2.5 7.4-2.2 10-1.4.7-2.5 1-5.2 1h-2l.2-.5.4-1.4.8-2.6.9-2.8.3-1.2a3.9 3.9 0 0 0 .2-.5l.4-1.3.4-1h2.5c2.3 0 2.5 0 3.3.4m149.6-.2c2 1 1.4 3.6-1.2 5-1.8 1-7.8.7-7-.2a5.6 5.6 0 0 0 .5-1.2 37.3 37.3 0 0 1 .8-2.9l.3-1h3c2.4 0 3.1 0 3.6.3" class="cls-1"/><path id="path1" d="M203.3 14a2.3 2.3 0 0 1-.8.4l-.2.1-.3.3a14.7 14.7 0 0 0-1.3.7l-1.8 1-1 .5-2 1.1-2 1c-.2.3-1 .7-1.6 1l-5 2.7-1.3.8a2.7 2.7 0 0 0-.5.3 11.8 11.8 0 0 1-1.2.6 13.6 13.6 0 0 0-2.3 1.3 3.3 3.3 0 0 1-.7.4 3.2 3.2 0 0 0-.7.3 2.2 2.2 0 0 1-.4.3l-5.2 2.8-4.8 2.6L160 38a2.8 2.8 0 0 0-.8.6c0 .2 0 .2 1.4-.4l3.5-1.6a48.7 48.7 0 0 0 4.2-2 10.8 10.8 0 0 0 1.2-.5 63 63 0 0 1 7-3.2l2.8-1.2 2.2-1a222 222 0 0 1 10.5-4.8 63.2 63.2 0 0 0 7-3.1l1.6-.7c3.3-1.6 3.8-1.7 4.4-1.4l5.7 2.7 10.4 5 7 3.2 3 1.5 7 3.3 3.7 1.7 4 1.9a8.7 8.7 0 0 0 2 .8v-.2a14.5 14.5 0 0 1-1.4-.8 13.6 13.6 0 0 0-1.2-.7 12.1 12.1 0 0 1-1.5-.8 15 15 0 0 0-1.6-1l-.4-.2a.2.2 0 0 0-.2-.2c-.1 0-4-2.1-5.3-3a5.9 5.9 0 0 0-.7-.4l-4.6-2.7-1.8-1-1.8-1-1.9-1.1-1.6-1-2.3-1.3-1.4-.8-1-.5-1.2-.8a6 6 0 0 0-1.2-.6.2.2 0 0 1-.2-.2s-.1-.2-.3-.2a11.6 11.6 0 0 1-1.4-.8 6.4 6.4 0 0 0-1.3-.7.2.2 0 0 1-.2-.1.2.2 0 0 0-.1-.2 9 9 0 0 1-1.5-.8l-1.8-1-3.4-2a2.7 2.7 0 0 0-3.2-.6m-112 108.8a1.4 1.4 0 0 0 .5 0h-.6m47.8.2a1.4 1.4 0 0 0 .6 0h-.6m155.6.7a2.4 2.4 0 0 0 .7 0l-.3-.1h-.4m44.7 5c0 2 0 2 .9 2s.7 0 .5-2.1l-.1-1.2h-1.3v1.3m7.4-.1a21.3 21.3 0 0 0-.8 2.7 2.7 2.7 0 0 0 1.2.6 16 16 0 0 0 .5-1.7l.5-1.5-.6-.3-.6-.3-.2.5m-14.9 0c-.3 0-.2.5.3 1.6a6.1 6.1 0 0 1 .5 1.2c0 .3.3.4 1 .2s.6-.6.2-1a.6.6 0 0 1-.2-.4c0-1-1-2-1.8-1.6m20.5 3.7-1 1.2c-.4.4-.4.5 0 1s.7.4 1.8-.8 1-1.3.5-1.8-.4-.5-1.2.4m-27.6.5c-.5.5-.5.7.7 1.6 1.4 1 1.3 1 2 .5l.4-.4-.4-.3c-2-1.8-2.2-1.9-2.7-1.4m31 4.5a7.2 7.2 0 0 1-1.1.5c-.3 0-.3.5-.1 1s.2.6 1.7-.1a3.5 3.5 0 0 0 .8-.5.3.3 0 0 1 .3-.2c.3 0 .3-.5 0-1s-.5-.4-1.6.3m-35.8.8c-.5.6-.4.7 1.6 1.9.7.4.8.4 1.2 0 .5-.6.5-.7-.7-1.4-1.7-1.1-1.6-1.1-2-.6m37.3 5-1.2.2v1.4h.8l1.6-.3h.8v-.7c0-.8 0-.9-2-.6m-40.9 2a3 3 0 0 1 0 .6c-.2.3 0 .3 1 .5 1.8.3 2.1.3 2.2-.2.3-1 .2-1-2.1-1.2-1 0-1 0-1 .2m39.2 4.1-.2.7c0 .2 1 .6 2.5.6.8 0 .8 0 1-.5s.2-.7-.9-.9c-2.3-.3-2.2-.3-2.3.1m-38.7 3.8a7.7 7.7 0 0 1-1.2.1h-.7v1.6l.8-.1c2.5-.3 2.3-.2 2.3-1s-.1-.8-1.2-.6m36.2 1c-.1.3-.3.5-.4.5-.2 0 .1.4.6.6a9.6 9.6 0 0 1 1.7 1l.5.3.4-.5c.5-.6.5-.7 0-1l-1.3-.7c-1.2-.6-1.2-.6-1.5 0m-227.5 10a2.1 2.1 0 0 0 .6 0c.2 0 0-.2-.3-.2s-.5 0-.3.1m-22.5 7.8a2.4 2.4 0 0 0 .7 0h-.7m2.8 0a1.8 1.8 0 0 0 .7 0h-.7m-20.7 15.2a8 8 0 0 0-.3 1v.4h13.5l.3-1 .3-.8H85.7l-.2.4m214.6-.1-.3.7c-.4.9-.7.8 6.6.8h6.8l.3-.8.3-1c0-.2-13.7 0-13.7.3" class="cls-1"/></g></svg>