<svg xmlns="http://www.w3.org/2000/svg" width="1440.002" height="1070.003" viewBox="0 0 1440.002 1070.003"><defs><style>.a{fill:#2980b9;}.b{fill:#2f8ecd;}</style></defs><g transform="translate(0.002)"><rect class="a" width="1440" height="1070"/><path class="b" d="M20012.742,1537a573.062,573.062,0,0,1-7.895-237.737c13.883-78.726,110.607-39.124,213.57.479,87.4,33.614,179.3,67.227,228.85,28.481,85.9-67.178,79.9-293.286,123.732-415.994V1537ZM19131,1537V1044.51A445.553,445.553,0,0,1,19403.5,952c115.025,0-41.672,271.686,37.6,343,40.252,36.209,125.014,35.007,207.064,33.81,103.574-1.516,202.842-3.032,202.842,70.69a447.221,447.221,0,0,1-21.523,137.5Zm507.951-459.471c-84.461-.032-41.992-275.393-134.967-312.911-49.309-19.892-126.6,8.792-202,37.47C19237.3,826.7,19174,851.316,19131,845.238V467h779.35q7.474,16.343,13.732,33.513c84.529,232.238-35.215,489.037-267.457,573.566a51.776,51.776,0,0,1-17.637,3.452Zm793.527-214.575a82.68,82.68,0,0,1-14.393-1.319C20206.3,824.3,20047.115,663.941,20001.061,467H20571V496.07c-44.65,137.462-32.932,366.873-138.51,366.887Z" transform="translate(-19131 -467)"/></g></svg>